<svg width="56" height="56" viewBox="0 0 56 56" fill="none" xmlns="http://www.w3.org/2000/svg">
<path d="M47.7969 0H8.20312C5.48909 0 3.28125 2.20784 3.28125 4.92188V23.1875H9.31798C10.4365 21.7385 11.4866 21.5491 13.1602 21.1015C13.7242 20.9509 14.1696 20.5055 14.3201 19.9416C15.6518 14.9622 18.4105 14.4761 22.0287 15.4439C22.5959 15.5897 23.2015 15.4326 23.6132 15.0193C27.2241 11.4084 29.6608 12.2934 32.3867 15.0193C32.7969 15.4326 33.3961 15.588 33.9729 15.4439C38.8475 14.1385 40.684 16.2181 41.6797 19.9416C41.8304 20.5055 42.2757 20.951 42.8397 21.1015C44.5133 21.5491 45.5633 21.7386 46.6819 23.1875H52.7188V4.92188C52.7188 2.20784 50.5109 0 47.7969 0ZM50 7H24H6L9 2H13.1602H46.6819C47.3228 2.64094 50 7 50 7Z" fill="#EDE1CE"/>
<path d="M1.64062 46.1562C1.07887 46.1562 0.530359 46.2141 0 46.3223C0 48.0682 0 49.3688 0 51.0781C0 53.7922 2.20784 56 4.92188 56C6.51361 56 8.08795 56 9.67772 56C9.78589 55.4696 9.84375 54.9211 9.84375 54.3594C9.84375 49.8364 6.16361 46.1562 1.64062 46.1562Z" fill="#EDE1CE"/>
<path d="M46.1562 36.3125H36.0375C35.2767 40.0552 31.9662 42.875 28 42.875C24.0338 42.875 20.7233 40.0552 19.9625 36.3125H9.84375V46.3475C11.8671 48.419 13.125 51.2424 13.125 54.3594C13.125 54.9211 13.0375 55.4595 12.9592 56C22.9331 56 33.1028 56 43.0408 56C42.9625 55.4595 42.875 54.9211 42.875 54.3594C42.875 51.2423 44.1329 48.4189 46.1562 46.3475V36.3125Z" fill="#EDE1CE"/>
<path d="M54.3594 46.1562C49.8364 46.1562 46.1562 49.8364 46.1562 54.3594C46.1562 54.9211 46.2141 55.4696 46.3223 56C47.905 56 49.4951 56 51.0781 56C53.7922 56 56 53.7922 56 51.0781C56 49.3722 56 48.0648 56 46.3223C55.4696 46.2141 54.9211 46.1562 54.3594 46.1562Z" fill="#EDE1CE"/>
<path d="M51.0781 26.4688C41.7619 26.4688 15.8024 26.4688 4.92188 26.4688C2.20784 26.4688 0 28.6766 0 31.3906C0 37.074 0 40.7086 0 43.0408C0.540531 42.9625 1.07887 42.875 1.64062 42.875C3.40867 42.875 5.06483 43.31 6.5625 44.0269V29.75H9.84375V33.0312H19.7969V29.75H23.0781V34.6719C23.0781 37.3952 25.2765 39.5938 28 39.5938C30.7235 39.5938 32.9219 37.3952 32.9219 34.6719C32.9219 32.9258 32.9219 31.4676 32.9219 29.75H36.2031V33.0312H46.1562V29.75H49.4375C49.4375 37.8177 49.4375 35.9932 49.4375 44.0269C50.9352 43.31 52.5913 42.875 54.3594 42.875C54.9211 42.875 55.4595 42.9625 56 43.0408C56 40.7095 56 37.0747 56 31.3906C56 28.6766 53.7922 26.4688 51.0781 26.4688ZM27.984 36.3445C27.0772 36.3445 26.3274 35.5948 26.3274 34.688C26.3274 33.7811 27.0772 33.0312 27.984 33.0312C28.8909 33.0312 29.6406 33.781 29.6406 34.6878C29.6406 35.5947 28.8909 36.3445 27.984 36.3445Z" fill="#EDE1CE"/>
</svg>
