<svg width="60" height="51" fill="none" xmlns="http://www.w3.org/2000/svg"><path d="M42.25 18.037L25 9.047 42.25 0v5.985h4.313c7.134 0 12.937 4.026 12.937 8.977v17.955c0 4.95-5.803 8.977-12.938 8.977H42.25v-5.985h4.313c2.376 0 4.312-1.344 4.312-2.992V14.962c0-1.649-1.936-2.992-4.313-2.992H42.25v6.067zm-25 14.805l17.25 8.99-17.25 9.047v-5.985h-4.313C5.803 44.894 0 40.868 0 35.917V17.962c0-4.951 5.802-8.977 12.938-8.977h4.312v5.985h-4.313c-2.376 0-4.312 1.343-4.312 2.992v17.955c0 1.648 1.936 2.992 4.313 2.992h4.312v-6.067z" fill="#EDE1CE"/></svg>