<svg width="77" height="76" fill="none" xmlns="http://www.w3.org/2000/svg"><path d="M38.525 12.175c1.17 0 2.117-.657 2.117-1.468v-9.24c0-.81-.948-1.467-2.117-1.467-1.17 0-2.117.657-2.117 1.468v9.24c0 .81.948 1.467 2.117 1.467zm12.153.698c1.17 0 2.117-.657 2.117-1.467v-2.87c0-.81-.948-1.467-2.117-1.467-1.168 0-2.116.657-2.116 1.467v2.87c0 .81.948 1.467 2.116 1.467zm-24.305-.218c1.169 0 2.117-.657 2.117-1.468V8.318c0-.81-.948-1.467-2.117-1.467-1.17 0-2.117.657-2.117 1.467v2.87c0 .81.948 1.467 2.117 1.467zm49.429 22.93c-.732-.245-1.602-.177-2.238.174l-8.392 4.638c-.128.07-.25.144-.372.217v-9.25c0-.81-.948-1.468-2.117-1.468s-2.117.658-2.117 1.468v9.251c-.122-.073-.244-.147-.371-.217L54.68 37.35V19.037c0-.572-.479-1.092-1.227-1.332-.75-.24-1.63-.157-2.26.213l-9.936 5.85c-1.08.636-1.995 1.376-2.733 2.187-.737-.811-1.652-1.551-2.732-2.187l-9.936-5.85c-.63-.37-1.51-.453-2.26-.213-.748.24-1.227.76-1.227 1.332v18.286l-5.563 3.074c-.128.07-.25.145-.373.218v-9.25c0-.811-.948-1.468-2.117-1.468s-2.117.657-2.117 1.467v9.25c-.122-.073-.244-.147-.37-.217l-8.394-4.638c-.636-.351-1.505-.419-2.238-.174C.466 35.83 0 36.343 0 36.907v17.17c0 2.595 1.678 5.01 4.605 6.628l7.595 4.197v3.35c0 .811.948 1.468 2.117 1.468s2.117-.657 2.117-1.467V64.9l7.595-4.196c1.221-.675 2.235-1.503 2.999-2.433.17.104.342.206.52.304l8.86 4.896V73.68c0 .81.948 1.467 2.117 1.467 1.17 0 2.117-.657 2.117-1.468V63.473l8.86-4.896c.167-.092.327-.188.487-.285.762.922 1.77 1.744 2.982 2.413l7.595 4.197v3.351c0 .81.948 1.468 2.117 1.468s2.117-.657 2.117-1.468v-3.35l7.595-4.197C75.32 59.087 77 56.672 77 54.077v-17.17c0-.564-.466-1.078-1.198-1.322zm-42.976 2.264c2.276 1.26 3.582 3.139 3.582 5.158v4.89l-6.22-3.438c-1.731-.957-2.943-2.325-3.388-3.828-.253-.86-.19-1.734-.197-2.606v-3.614l6.223 3.438zm17.621-3.438v4.89c0 1.991-1.336 3.916-3.584 5.157l-6.22 3.439v-4.89c0-2.02 1.306-3.9 3.583-5.158l6.221-3.438zm17.363 8.282l4.956-2.74v3.851c0 1.697-1.097 3.276-3.01 4.333l-4.955 2.738v-3.862c.005-1.691 1.101-3.265 3.009-4.32zm-7.244 4.306v3.876l-4.954-2.738a7.626 7.626 0 01-.93-.605v-6.427l2.874 1.588c1.904 1.052 3 2.62 3.01 4.306zM40.642 31.033c0-1.94 1.223-3.772 3.356-5.028l6.45-3.797v5.272c0 2.019-1.307 3.899-3.584 5.158l-6.222 3.438v-5.043zm-14.039-8.825l6.45 3.797c2.132 1.256 3.355 3.088 3.355 5.028v5.043l-.943-.522h-.002l-5.276-2.916c-2.277-1.259-3.584-3.139-3.584-5.158v-5.271zm-7.158 20.485l2.925-1.616v6.418a7.502 7.502 0 01-.98.64l-4.956 2.74v-3.86c.004-1.692 1.1-3.267 3.01-4.322zm-15.211-2.74l4.956 2.74c1.91 1.056 3.007 2.632 3.01 4.326v3.855l-4.956-2.739c-1.913-1.057-3.01-2.636-3.01-4.332v-3.85zm0 14.124v-3.85l4.956 2.74c1.911 1.055 3.008 2.632 3.01 4.326v3.855l-4.956-2.739c-1.913-1.057-3.01-2.636-3.01-4.332zM21.39 58.41l-4.957 2.739v-3.86c.004-1.69 1.101-3.266 3.011-4.322l2.929-1.62c.051 1.515.627 3.024 1.677 4.353-.472 1.064-1.398 2.013-2.66 2.71zm6.744-3.696c-.95-1.106-1.531-2.292-1.531-3.59v-4.89l6.22 3.438c2.278 1.259 3.584 3.139 3.584 5.158v4.89l-6.22-3.438a8.313 8.313 0 01-2.053-1.568c-.012-.013.55.587 0 0zm18.729 1.568l-6.222 3.438v-4.89c0-2.019 1.307-3.899 3.584-5.158l6.221-3.437v4.889c0 1.991-1.337 3.916-3.583 5.158zm6.105-.542c1.064-1.33 1.65-2.845 1.707-4.365l2.88 1.592c1.904 1.053 3 2.622 3.01 4.307v3.875l-4.956-2.74c-1.246-.687-2.165-1.621-2.64-2.669zm19.797-1.662c0 1.696-1.097 3.275-3.01 4.332L64.8 61.149v-3.862c.005-1.691 1.101-3.265 3.009-4.32l4.956-2.739v3.85z" fill="#EDE1CE"/><path d="M24.295 11.842c.285.475 1.08.719 1.778.542.74-.187 1.121-.782.817-1.288-.281-.476-1.082-.719-1.778-.543-.743.188-1.117.782-.817 1.29-.036-.06.035.058 0 0z" fill="#EDE1CE"/></svg>