<svg width="62" height="49" fill="none" xmlns="http://www.w3.org/2000/svg"><path d="M46.03 23.13l-3.954-2.964L46.03 17.2a9.113 9.113 0 0110.157-.524L62 20.166l-5.814 3.488a9.113 9.113 0 01-10.157-.523z" fill="#8ABD49"/><path d="M42.076 20.166l1.477 1.107h4.481l1.759 3.52c.837.16 1.692.2 2.54.12l-1.825-3.64h9.648L62 20.166l-1.844-1.107H54.71l2.03-2.05-.554-.331a9.038 9.038 0 00-1.49-.718.948.948 0 00-.12.102L51.58 19.06h-8.027l-1.477 1.107z" fill="#02A437"/><path d="M62 20.166l-1.844-1.107H54.71l2.03-2.05-.554-.331a9.038 9.038 0 00-1.49-.718.948.948 0 00-.12.102L51.58 19.06h-9.506a10.006 10.006 0 00-8.998 5.562l-1.691 3.383a1.108 1.108 0 00.99 1.602c.406 0-.01 1.47.184 1.081l2.498-5.076a7.805 7.805 0 017.019-4.338h5.957l1.759 3.52c.837.16 1.692.2 2.54.12l-1.825-3.64h9.648L62 20.166z" fill="#6C943A"/><path d="M15.97 26.866l3.954-2.965-3.953-2.964a9.113 9.113 0 00-10.157-.524L0 23.9l5.814 3.489a9.113 9.113 0 0010.157-.524z" fill="#8ABD49"/><path d="M19.924 23.901l-1.477 1.107h-4.481l-1.759 3.52a9.04 9.04 0 01-2.54.12l1.825-3.64H1.844L0 23.901l1.844-1.107H7.29l-2.03-2.049.554-.332a9.039 9.039 0 011.49-.718.906.906 0 01.12.103l2.996 2.997h8.027l1.477 1.106z" fill="#02A437"/><path d="M30.614 31.74l-1.691-3.383a10.006 10.006 0 00-8.997-5.563H10.42l-2.996-2.996a.946.946 0 00-.12-.103 9.039 9.039 0 00-1.49.718l-.554.332 2.03 2.05H1.844L0 23.9l1.844 1.107h9.648l-1.825 3.64a9.04 9.04 0 002.54-.12l1.759-3.52h5.958a7.805 7.805 0 017.019 4.338l1.691 3.383a1.107 1.107 0 101.98-.99z" fill="#6C943A"/><path d="M28.914 8.046L31 .5l1.789 7.546v40.538h-3.875V8.046z" fill="#8ABD49"/><path d="M31.894 4.5L33 8.046l.087 40.538h-1.193V4.5z" fill="#6C943A"/></svg>