<svg width="57" height="57" fill="none" xmlns="http://www.w3.org/2000/svg"><path d="M40.692 42.816c4.977 1.897 10.526.116 10.76.039l1.4-.46-.302-1.443c-.05-.241-1.283-5.937-5.414-9.3l-14.738-1.44 8.294 12.604zM21.67 45.794c.846 5.257 5.162 9.283 5.346 9.447l1.098.983 1.1-.983c.183-.164 4.498-4.19 5.344-9.447l-6.444-10.75-6.444 10.75zM3.679 40.952l-.303 1.443 1.401.46c.234.077 5.783 1.858 10.76-.039l4.995-9.31-11.439-1.854c-4.13 3.362-5.364 9.059-5.414 9.3z" fill="#C29E2D"/><path d="M29.025 38.245c-.108 2.813.445 5.395 1.62 7.426 3.06 5.304 10.015 6.816 10.309 6.877l1.443.302.46-1.4c.055-.17.831-2.594.831-5.644 0-2.121-.376-4.547-1.632-6.723-1.192-2.064-3.087-3.785-5.638-5.124l-7.393 4.286zm-14.852.838c-3.061 5.305-.896 12.08-.801 12.366l.46 1.401 1.443-.302c.294-.061 7.248-1.573 10.31-6.877 1.178-2.043 1.735-4.623 1.616-7.481l-7.383-4.234c-2.556 1.338-4.453 3.061-5.645 5.127z" fill="#F1D139"/><path d="M4.777 13.37l-1.401.46.302 1.442c.05.242 1.284 5.937 5.415 9.3l14.738 1.44-8.294-12.604c-4.977-1.897-10.527-.116-10.76-.039zM27.016.983c-.184.164-4.5 4.19-5.346 9.447l6.444 10.75 6.444-10.75c-.846-5.256-5.162-9.283-5.345-9.447L28.114 0l-1.098.983zm13.676 12.425l-4.995 9.31 11.439 1.854c4.13-3.362 5.365-9.058 5.414-9.3l.303-1.443-1.401-.46c-.233-.077-5.783-1.857-10.76.04z" fill="#C29E2D"/><path d="M13.372 4.775c-.095.288-2.262 7.065.8 12.367 1.193 2.063 3.087 3.785 5.639 5.123l7.393-4.285c.093-2.816-.447-5.396-1.62-7.427-3.061-5.304-10.015-6.816-10.31-6.877l-1.442-.302-.46 1.4zm27.582-1.099c-.294.061-7.248 1.573-10.31 6.877-1.18 2.044-1.756 4.639-1.616 7.481l7.383 4.234c2.556-1.338 4.453-3.061 5.645-5.127 1.256-2.176 1.633-4.602 1.633-6.723 0-3.05-.778-5.474-.832-5.643l-.46-1.401-1.443.302zm3.072 17.847c6.128 0 11.014 5.271 11.212 5.502l.989 1.087-.989 1.087c-.197.23-5.084 5.502-11.212 5.502-2.339 0-4.843-.79-7.248-2.306l-.032-4.283v-4.25c2.438-1.548 4.908-2.339 7.28-2.339zm-31.823 0c2.536 0 5.27.923 7.84 2.702v7.774c-2.57 1.78-5.304 2.702-7.84 2.702C6.075 34.7 1.188 29.43.99 29.199l-.989-1.087.989-1.087c.197-.23 5.084-5.502 11.211-5.502z" fill="#F1D139"/><path d="M19.88 32.504c-2.438 1.549-4.909 2.34-7.28 2.34-6.128 0-11.015-5.272-11.213-5.502L.4 28.254h19.48v4.25zm16.945 0c2.438 1.548 4.909 2.339 7.28 2.339 6.128 0 11.015-5.27 11.212-5.502l.989-1.087H36.825v4.25z" fill="#E9CB3F"/><path d="M16.584 28.112c0 6.358 5.172 11.53 11.53 11.53s11.53-5.172 11.53-11.53-5.172-11.53-11.53-11.53-11.53 5.172-11.53 11.53z" fill="#5C493B"/><path d="M28.114 16.582c6.358 0 11.53 5.172 11.53 11.53h-23.06c0-6.358 5.172-11.53 11.53-11.53z" fill="#4E3B2D"/><path d="M23.173 26.465v3.294h3.294v-3.294h-3.294zm6.588 0v3.294h3.295v-3.294H29.76zm-3.294 3.295v3.294h3.295v-3.295h-3.295z" fill="#45382E"/><path d="M26.467 23.17v3.295h3.295V23.17h-3.295zm-3.294 3.295v1.647h3.294v-1.647h-3.294z" fill="#34281F"/><path d="M29.761 26.465v1.647h3.295v-1.647H29.76z" fill="#34281F"/></svg>