<svg width="56" height="56" fill="none" xmlns="http://www.w3.org/2000/svg"><path d="M47.797 0H8.203a4.927 4.927 0 00-4.922 4.922v18.265h6.037c1.119-1.449 2.169-1.638 3.842-2.085a1.644 1.644 0 001.16-1.16c1.332-4.98 4.09-5.466 7.709-4.498a1.655 1.655 0 001.584-.425c3.611-3.61 6.048-2.726 8.774 0 .41.414 1.01.569 1.586.425 4.874-1.306 6.711.774 7.707 4.498.15.564.596 1.009 1.16 1.16 1.673.447 2.723.637 3.842 2.085h6.037V4.922A4.927 4.927 0 0047.797 0zM50 7H6l3-5h37.682C47.322 2.64 50 7 50 7zM1.64 46.156a8.2 8.2 0 00-1.64.166v4.756A4.927 4.927 0 004.922 56h4.756c.108-.53.166-1.079.166-1.64 0-4.524-3.68-8.204-8.203-8.204zm44.516-9.843H36.038c-.761 3.742-4.072 6.562-8.038 6.562s-7.277-2.82-8.038-6.563H9.844v10.035c2.023 2.072 3.281 4.895 3.281 8.012 0 .562-.088 1.1-.166 1.641h30.082c-.078-.54-.166-1.079-.166-1.64 0-3.118 1.258-5.941 3.281-8.013V36.313zm8.204 9.843c-4.524 0-8.204 3.68-8.204 8.203A8.2 8.2 0 0046.322 56h4.756A4.927 4.927 0 0056 51.078v-4.756a8.2 8.2 0 00-1.64-.166z" fill="#EDE1CE"/><path d="M51.078 26.469H4.922A4.927 4.927 0 000 31.39v11.65c.54-.078 1.079-.166 1.64-.166 1.769 0 3.425.435 4.922 1.152V29.75h3.282v3.281h9.953V29.75h3.281v4.922A4.915 4.915 0 0028 39.594a4.915 4.915 0 004.922-4.922V29.75h3.281v3.281h9.953V29.75h3.282v14.277c1.497-.717 3.153-1.152 4.921-1.152.562 0 1.1.087 1.641.166V31.39a4.927 4.927 0 00-4.922-4.922zm-23.094 9.875c-.907 0-1.657-.75-1.657-1.656 0-.907.75-1.657 1.657-1.657s1.657.75 1.657 1.657-.75 1.656-1.657 1.656z" fill="#EDE1CE"/></svg>